<?xml version="1.0" standalone="no"?>
<!DOCTYPE svg PUBLIC "-//W3C//DTD SVG 20010904//EN"
 "http://www.w3.org/TR/2001/REC-SVG-20010904/DTD/svg10.dtd">
<svg version="1.0" xmlns="http://www.w3.org/2000/svg"
 width="2084.000000pt" height="2084.000000pt" viewBox="0 0 2084.000000 2084.000000"
 preserveAspectRatio="xMidYMid meet">
<metadata>
Created by potrace 1.11, written by Peter Selinger 2001-2013
</metadata>
<g transform="translate(0.000000,2084.000000) scale(0.100000,-0.100000)"
fill="#000000" stroke="none">
<path d="M4187 13705 c-1 -2 -50 -6 -110 -9 -59 -4 -117 -9 -130 -12 -12 -2
-43 -6 -68 -9 -25 -3 -56 -8 -69 -10 -13 -3 -42 -7 -65 -10 -179 -26 -491
-120 -714 -216 -177 -76 -442 -221 -528 -289 -25 -19 -24 -20 243 -15 148 3
445 7 659 10 215 3 559 8 765 11 206 3 508 7 670 9 1026 13 1255 17 1258 19 7
8 -174 112 -315 182 -157 77 -329 147 -468 190 -82 26 -297 80 -350 89 -16 3
-57 10 -90 16 -33 6 -71 13 -85 14 -98 10 -152 16 -198 21 -50 6 -399 13 -405
9z"/>
<path d="M9687 13704 c-1 -1 -42 -4 -92 -8 -49 -3 -101 -8 -115 -10 -23 -4
-76 -12 -154 -22 -89 -12 -298 -70 -436 -120 -181 -67 -428 -205 -540 -303
l-35 -30 310 4 c171 3 486 7 700 10 215 3 568 7 785 10 217 3 525 8 683 10
159 2 291 6 294 9 5 5 7 325 2 331 -2 2 -33 6 -69 10 -36 4 -72 9 -81 10 -9 2
-40 6 -70 10 -30 3 -65 8 -79 10 -47 8 -114 16 -265 30 -33 3 -76 8 -95 10
-19 2 -64 7 -100 10 -36 4 -77 8 -91 10 -109 13 -541 28 -552 19z"/>
<path d="M11284 13549 c-2 -3 18 -71 45 -150 l48 -144 204 2 c112 0 418 4 679
8 419 6 634 9 1108 15 67 1 122 4 122 7 0 16 -83 263 -88 264 -26 5 -2115 3
-2118 -2z"/>
<path d="M14852 13550 c-7 -5 -83 -229 -82 -243 0 -5 208 -5 463 -2 254 4 596
8 760 10 165 2 301 5 303 8 4 3 -65 218 -73 227 -6 6 -1363 7 -1371 0z"/>
<path d="M17659 13532 c-18 -48 -59 -177 -59 -187 0 -6 28 -9 72 -8 40 1 271
4 513 7 242 3 629 9 860 12 231 4 480 7 552 7 l133 1 30 91 c16 49 30 92 30
95 0 3 -478 5 -1061 5 l-1061 0 -9 -23z"/>
<path d="M2441 13092 c-30 -3 -144 -79 -202 -134 -8 -7 -34 -29 -59 -49 -123
-99 -358 -351 -479 -513 -115 -156 -115 -156 -94 -157 55 -2 837 7 1361 16
139 2 459 7 710 10 251 3 581 8 732 10 151 2 471 7 710 10 239 3 568 8 730 10
162 2 488 7 725 10 236 4 431 8 433 10 13 13 -240 319 -355 430 -116 112 -166
157 -247 223 l-90 72 -105 1 c-58 0 -221 2 -361 4 -140 2 -439 6 -665 9 -225
4 -567 8 -760 11 -192 3 -501 7 -685 10 -984 13 -1255 17 -1260 19 -3 1 -20 0
-39 -2z"/>
<path d="M8097 12977 c-116 -145 -216 -347 -272 -552 -14 -52 -20 -92 -15 -95
10 -6 79 -6 810 5 256 4 584 8 730 10 498 7 1165 17 1335 20 94 1 224 3 291 4
l121 1 0 305 1 305 -32 0 c-17 1 -177 3 -356 5 -903 12 -1210 16 -1600 20
-234 3 -550 7 -702 9 l-278 4 -33 -41z"/>
<path d="M11511 12853 c22 -65 67 -199 100 -299 l60 -180 162 2 c143 2 616 8
1392 19 138 2 319 5 403 6 83 1 152 6 152 11 0 5 -32 106 -71 226 -39 119 -75
233 -81 252 -6 19 -14 39 -19 44 -5 5 -100 11 -211 12 -243 4 -842 12 -1469
20 l-457 6 39 -119z"/>
<path d="M14612 12843 c-27 -79 -142 -424 -142 -427 0 -1 53 -1 118 0 341 5
987 15 1362 20 234 4 472 7 530 8 61 1 104 6 103 11 0 6 -33 109 -73 231 l-71
221 -277 3 c-301 3 -437 4 -1088 15 l-431 6 -31 -88z"/>
<path d="M17445 12877 c-3 -7 -36 -106 -74 -220 l-70 -209 427 6 c235 4 605 9
822 12 217 3 504 6 638 8 133 2 245 6 248 9 10 9 126 368 122 373 -3 2 -171 6
-374 9 -203 3 -540 7 -749 10 -994 14 -986 14 -990 2z"/>
<path d="M1515 12118 c-148 -255 -259 -500 -330 -726 l-13 -43 451 6 c249 3
637 8 862 11 226 3 530 6 677 8 l268 3 47 40 c179 150 418 263 633 298 199 32
451 12 635 -50 129 -44 374 -183 429 -244 15 -17 33 -18 234 -15 119 1 451 6
737 9 286 4 626 8 755 10 129 2 306 4 393 5 117 1 157 5 157 14 0 13 -34 114
-70 206 -31 82 -151 323 -206 418 l-49 82 -165 1 c-91 0 -282 2 -425 4 -731
10 -1165 16 -1495 20 -201 3 -513 7 -695 10 -539 8 -1514 21 -2265 29 l-505 6
-60 -102z"/>
<path d="M7769 12127 c-1 -7 -3 -28 -5 -47 -13 -121 -5 -349 17 -500 23 -157
14 -145 111 -144 46 1 281 4 523 8 242 3 595 9 785 12 304 4 873 13 954 14
l29 0 -28 28 c-146 143 -97 292 115 349 53 14 106 18 285 18 121 0 247 -4 280
-8 144 -20 250 -33 253 -32 2 2 5 236 3 260 -1 6 -79 11 -209 12 -114 0 -407
4 -652 8 -245 4 -571 8 -725 10 -154 2 -478 6 -720 10 -995 14 -1015 14 -1016
2z"/>
<path d="M11770 12077 c0 -19 183 -572 191 -578 5 -3 73 -4 151 -3 79 2 332 5
563 8 782 11 1240 18 1320 19 65 2 79 5 76 17 -2 8 -41 128 -86 265 l-83 250
-123 2 c-289 4 -974 13 -1364 19 -231 3 -471 7 -532 8 -62 1 -113 -2 -113 -7z"/>
<path d="M14347 12043 c-5 -9 -167 -503 -167 -510 0 -4 385 -1 1250 12 146 2
468 7 715 10 248 4 512 8 587 9 75 1 139 4 141 6 3 3 -28 104 -69 225 -40 121
-73 221 -74 222 0 0 -60 2 -132 3 -73 1 -252 3 -398 5 -354 6 -954 14 -1447
21 -221 2 -403 1 -406 -3z"/>
<path d="M17150 11988 c-5 -13 -37 -108 -71 -213 -34 -104 -64 -195 -66 -201
-5 -13 160 -12 1702 11 121 2 268 4 326 4 l106 1 66 195 65 195 -46 1 c-26 0
-150 2 -277 4 -126 2 -435 6 -685 10 -250 3 -602 8 -783 10 l-327 5 -10 -22z"/>
<path d="M1166 11329 c-12 -36 -35 -130 -45 -179 -6 -30 -14 -66 -16 -80 -18
-84 -24 -122 -30 -175 -3 -33 -8 -67 -10 -75 -19 -76 -27 -580 -12 -715 20
-173 21 -182 42 -300 9 -49 23 -117 32 -150 8 -33 17 -73 20 -89 8 -49 89
-287 133 -391 58 -137 186 -393 222 -443 l16 -24 534 7 c734 8 1109 13 1548
20 206 2 566 7 800 10 234 3 565 8 735 10 171 2 522 7 780 10 259 4 587 8 730
10 143 2 321 4 396 5 l136 2 23 41 c52 97 131 258 165 342 47 113 116 317 110
323 -3 3 -98 6 -212 8 -931 12 -1183 16 -1423 19 -151 2 -337 4 -412 6 l-137
2 -56 -53 c-191 -185 -484 -329 -726 -357 -113 -13 -337 -8 -429 11 -267 54
-515 191 -690 378 l-45 49 -270 4 c-149 2 -511 7 -805 10 -698 8 -809 11 -817
19 -3 3 97 6 223 7 126 0 357 2 514 5 577 9 878 13 988 13 l114 1 -37 51 c-48
67 -128 218 -159 300 -49 130 -74 254 -80 398 -2 34 -6 65 -10 69 -4 4 -62 8
-129 9 -135 1 -722 10 -1292 18 -203 3 -371 8 -374 10 -2 3 70 5 160 5 90 0
304 2 474 5 171 2 503 7 740 10 236 3 430 7 431 8 1 1 5 30 8 65 15 143 56
290 116 418 39 81 138 237 182 284 54 59 62 55 -130 56 -97 1 -355 4 -572 8
-1235 18 -1450 18 -1454 5z m144 -1743 c0 -2 -7 -7 -16 -10 -8 -3 -12 -2 -9 4
6 10 25 14 25 6z m80 -1 c0 -7 -30 -13 -34 -7 -3 4 4 9 15 9 10 1 19 0 19 -2z"/>
<path d="M5359 11227 c55 -69 126 -187 161 -263 52 -116 102 -292 113 -402 l3
-33 219 1 c121 1 328 4 460 6 582 9 894 13 1089 14 l209 1 -6 117 c-4 64 -8
128 -11 142 -2 14 -7 43 -10 65 -5 39 -26 170 -30 190 -1 6 -10 47 -20 91 -10
45 -21 87 -25 93 -7 11 -98 13 -1161 26 -223 3 -548 7 -722 10 l-318 4 49 -62z"/>
<path d="M7875 11228 c24 -80 153 -318 234 -433 37 -53 124 -162 163 -207 l24
-26 319 4 c176 2 487 6 690 8 723 10 1294 18 1563 20 150 2 275 6 278 8 20 21
-606 592 -671 611 -18 5 -365 11 -1330 22 -159 2 -512 6 -783 10 l-494 6 7
-23z"/>
<path d="M12060 11192 c0 -7 166 -514 181 -552 l10 -26 122 3 c67 1 338 5 602
8 264 3 617 8 785 10 168 3 492 7 720 10 228 3 579 7 780 10 201 3 538 7 750
10 450 6 1076 14 1480 20 157 2 510 7 785 10 275 4 518 8 540 8 l40 2 65 195
c36 107 64 196 64 198 -2 3 -307 9 -964 17 -245 3 -578 7 -740 10 -162 2 -477
7 -700 10 -590 7 -1108 15 -1495 20 -187 3 -509 7 -715 10 -206 3 -523 7 -705
10 -181 2 -528 7 -770 10 -242 4 -529 8 -637 9 -109 2 -198 1 -198 -2z"/>
<path d="M5644 10368 c0 -28 -14 -172 -19 -188 -3 -14 -16 -67 -19 -85 -17
-88 -101 -277 -169 -384 l-46 -70 347 4 c191 2 532 7 757 10 226 4 538 8 695
10 157 2 299 4 316 4 l32 1 20 113 c12 61 24 135 27 162 4 28 8 61 10 74 7 42
18 214 19 286 l1 70 -70 1 c-38 1 -293 5 -565 8 -272 3 -684 9 -916 12 l-420
5 0 -33z"/>
<path d="M8506 10348 c16 -26 289 -252 479 -398 140 -107 308 -242 316 -252 3
-5 158 -6 345 -3 186 3 494 7 684 10 190 2 525 7 745 11 220 3 442 6 493 6 50
1 92 3 92 5 0 18 -83 219 -126 306 -58 118 -149 273 -166 283 -6 4 -121 8
-257 10 -257 3 -914 11 -1526 19 -1016 14 -1086 14 -1079 3z"/>
<path d="M12356 10288 c29 -93 177 -544 180 -547 5 -6 42 -5 1389 14 176 3
496 7 710 10 215 3 541 7 725 10 184 3 511 7 725 10 215 3 532 8 705 10 173 2
509 7 745 10 705 9 1018 15 1022 19 5 5 133 386 133 396 0 4 -100 9 -222 10
-123 1 -326 3 -453 5 -126 2 -453 6 -725 10 -272 3 -628 8 -790 10 -162 2
-502 7 -755 10 -253 3 -608 8 -790 10 -181 3 -510 7 -730 10 -483 6 -1001 13
-1503 20 l-373 5 7 -22z"/>
<path d="M9547 9462 c-20 -4 -20 -3 -6 -39 16 -40 12 -128 -7 -190 -27 -87
-128 -169 -231 -188 -16 -3 -39 -7 -53 -10 -28 -6 -373 -7 -405 -1 -11 2 -56
7 -100 11 -121 11 -137 13 -171 19 -17 3 -47 8 -67 10 -20 3 -52 8 -69 11 -18
3 -44 7 -58 9 -14 2 -59 12 -100 21 -41 8 -100 20 -130 26 -30 5 -102 21 -160
35 -58 14 -112 27 -120 29 -8 2 -31 9 -50 14 -19 6 -37 11 -40 11 -3 0 -5 -99
-5 -220 l0 -221 360 6 c198 3 522 7 720 10 198 2 536 7 750 10 215 3 534 8
710 10 176 2 518 7 760 11 242 3 488 6 547 7 87 1 109 4 114 16 11 26 13 450
2 516 l-10 60 -131 1 c-123 2 -419 5 -1477 20 -234 3 -455 7 -491 7 -36 1 -73
1 -82 -1z"/>
<path d="M12665 9423 c-20 -4 -16 -18 63 -261 46 -141 88 -268 93 -282 8 -23
14 -25 62 -24 28 1 268 5 532 8 264 4 658 9 875 12 483 7 934 12 1057 13 l91
1 43 133 c24 72 46 135 49 140 3 4 27 -55 51 -130 l45 -138 280 2 c278 1 898
9 1514 19 179 3 441 7 583 9 142 2 260 5 261 7 7 9 132 404 129 407 -2 3 -90
5 -196 7 -258 3 -1058 14 -1392 19 -148 2 -466 7 -705 10 -239 3 -572 8 -740
10 -168 3 -494 7 -725 10 -231 3 -555 7 -720 10 -165 2 -507 7 -759 10 -253 3
-462 7 -465 9 -3 1 -15 0 -26 -1z"/>
<path d="M1540 8675 c0 -7 6 -20 13 -27 6 -7 38 -51 69 -98 128 -191 414 -511
569 -635 27 -22 62 -50 76 -62 26 -21 31 -22 307 -18 155 3 472 7 706 10 419
5 835 11 1510 20 821 11 1297 17 1461 19 175 1 176 1 212 29 53 40 306 292
368 367 96 114 255 328 247 331 -5 2 -577 11 -1563 24 -154 2 -478 6 -720 10
-862 11 -1125 15 -1485 20 -389 5 -1012 14 -1482 20 -238 3 -288 1 -288 -10z"/>
<path d="M7783 8596 c-8 -12 -8 -675 0 -683 6 -5 106 -5 602 2 138 2 462 6
720 10 259 3 585 8 725 10 140 2 467 7 725 10 594 9 847 12 862 14 44 4 223
383 258 548 3 18 7 36 8 40 1 5 -47 9 -108 10 -308 4 -1094 14 -1430 18 -209
3 -537 7 -730 10 -192 2 -570 7 -840 11 -269 3 -557 7 -638 8 -87 1 -151 -2
-154 -8z"/>
<path d="M12944 8528 c-5 -8 165 -529 176 -542 5 -4 64 -7 132 -6 67 1 233 3
368 5 135 2 450 7 700 10 464 7 740 12 797 14 l32 1 77 238 c42 130 79 242 81
247 2 7 -78 12 -244 14 -137 1 -376 4 -533 6 -157 2 -530 6 -830 10 -300 3
-592 7 -648 8 -57 1 -106 -1 -108 -5z"/>
<path d="M15771 8486 c0 -6 35 -114 77 -241 l77 -230 95 1 c52 1 289 5 525 8
237 3 612 9 835 12 223 4 448 7 500 8 l95 1 69 208 c37 114 67 210 64 212 -2
2 -224 6 -493 10 -270 3 -690 8 -935 10 -245 3 -550 7 -677 9 -171 3 -233 1
-232 -8z"/>
<path d="M2371 7777 c118 -107 532 -337 774 -430 152 -59 395 -131 509 -151
16 -3 52 -10 80 -15 90 -18 245 -38 356 -46 76 -6 407 -6 465 0 22 2 73 7 114
10 41 4 81 8 90 10 9 1 38 6 66 9 62 9 237 43 290 57 22 6 47 12 56 14 8 2 69
20 135 40 248 78 521 201 730 330 145 90 211 135 199 136 -21 2 -386 8 -805
13 -239 4 -592 8 -785 11 -450 7 -883 12 -1470 20 -258 3 -551 8 -649 10
l-179 4 24 -22z"/>
<path d="M7795 7723 c-19 -4 -20 -11 -18 -185 1 -99 5 -183 8 -186 3 -3 11 -7
18 -8 7 -1 50 -12 97 -24 83 -22 185 -45 245 -56 17 -3 86 -16 155 -29 69 -13
145 -27 170 -30 25 -4 52 -9 60 -10 8 -1 44 -6 80 -10 36 -4 72 -9 80 -10 8
-2 47 -6 87 -10 40 -4 85 -8 100 -10 15 -2 78 -6 138 -10 61 -4 130 -9 155
-11 64 -5 530 -5 560 0 14 2 64 7 111 10 47 4 94 8 105 10 10 2 42 7 69 10 74
11 116 17 134 21 251 54 415 108 606 203 122 61 303 178 380 246 l49 43 -79 1
c-44 0 -280 2 -525 6 -245 4 -611 9 -815 11 -203 3 -514 7 -690 10 -176 2
-529 7 -784 10 -255 3 -467 7 -470 8 -3 2 -15 2 -26 0z"/>
<path d="M13230 7642 c0 -8 111 -346 115 -351 3 -3 1311 -4 1512 -2 l51 1 55
165 c46 139 53 165 39 166 -35 1 -455 8 -902 14 -256 4 -556 8 -667 10 -112 1
-203 0 -203 -3z"/>
<path d="M16060 7603 c0 -11 90 -287 98 -302 6 -11 132 -14 781 -14 431 0 776
4 781 9 7 8 90 253 94 278 1 11 -26 12 -684 21 -250 3 -593 8 -762 10 -170 3
-308 2 -308 -2z"/>
</g>
</svg>
