<?xml version="1.0" standalone="no"?>
<!DOCTYPE svg PUBLIC "-//W3C//DTD SVG 20010904//EN"
 "http://www.w3.org/TR/2001/REC-SVG-20010904/DTD/svg10.dtd">
<svg version="1.0" xmlns="http://www.w3.org/2000/svg"
 width="700.000000pt" height="700.000000pt" viewBox="0 0 700.000000 700.000000"
 preserveAspectRatio="xMidYMid meet">
<metadata>
Created by potrace 1.11, written by Peter Selinger 2001-2013
</metadata>
<g transform="translate(0.000000,700.000000) scale(0.100000,-0.100000)"
fill="#000000" stroke="none">
<path d="M1390 4603 c-175 -13 -354 -69 -502 -157 -27 -15 -48 -29 -48 -31 0
-2 303 1 785 9 132 3 283 5 335 6 l95 1 -115 57 c-97 48 -196 82 -278 97 -75
13 -210 22 -272 18z"/>
<path d="M3195 4599 c-99 -13 -198 -41 -260 -71 -45 -23 -135 -79 -135 -85 0
-5 913 8 921 13 4 2 6 28 6 56 l-2 53 -46 6 c-44 7 -80 10 -219 24 -99 10
-209 11 -265 4z"/>
<path d="M3794 4548 c-2 -3 4 -26 15 -50 l19 -45 183 3 c101 1 259 3 352 4
181 2 175 -1 153 60 l-13 34 -352 1 c-194 0 -355 -3 -357 -7z"/>
<path d="M4991 4545 c-5 -5 -13 -25 -19 -43 l-11 -33 252 3 252 4 -3 34 c-1
19 -5 36 -8 39 -9 10 -456 6 -463 -4z"/>
<path d="M5941 4550 c-4 -3 -13 -19 -19 -37 l-10 -31 211 3 c117 2 278 4 359
4 l146 1 11 31 c6 18 11 32 11 33 0 4 -703 0 -709 -4z"/>
<path d="M773 4369 c-276 -219 -435 -562 -420 -903 15 -304 112 -529 322 -743
l90 -91 277 3 c152 2 467 6 700 10 l423 6 75 77 c65 66 130 148 130 163 0 2
-62 5 -138 5 -75 1 -373 5 -662 9 -289 4 -628 8 -753 10 -125 1 -231 5 -234 9
-4 3 97 6 223 7 126 0 344 2 484 5 352 6 840 13 992 13 l128 1 31 62 c31 62
72 169 66 174 -1 2 -166 5 -365 8 l-363 5 -32 -28 c-146 -126 -355 -145 -521
-47 -23 13 -55 38 -72 55 l-31 30 -236 2 c-130 2 -234 5 -232 7 3 3 103 7 222
9 120 2 219 6 221 7 2 2 -8 20 -22 40 -27 40 -50 112 -60 187 l-7 47 -232 1
c-127 1 -233 4 -236 6 -2 3 45 5 105 6 60 0 167 1 238 2 l130 2 4 35 c7 70 50
166 95 218 l20 22 -39 1 c-261 4 -407 9 -412 13 -3 3 81 6 186 7 106 0 213 1
240 1 34 1 55 7 76 25 137 114 362 123 514 19 l49 -34 259 3 c142 2 312 4 378
4 l118 1 -7 28 c-3 15 -27 69 -51 120 -44 91 -45 92 -82 93 -297 5 -881 13
-1584 22 -170 2 -126 12 60 13 92 1 392 5 667 9 275 4 575 8 667 9 92 1 170 5
173 8 11 10 -101 136 -177 199 l-47 40 -328 4 c-180 3 -475 7 -655 10 l-326 4
-39 -30z m-118 -259 c-3 -5 -12 -10 -18 -10 -7 0 -6 4 3 10 19 12 23 12 15 0z
m-112 -297 c-7 -2 -19 -2 -25 0 -7 3 -2 5 12 5 14 0 19 -2 13 -5z m67 3 c0 -3
-4 -8 -10 -11 -5 -3 -10 -1 -10 4 0 6 5 11 10 11 6 0 10 -2 10 -4z m60 -5 c0
-4 -11 -6 -25 -3 -14 2 -25 6 -25 8 0 2 11 4 25 4 14 0 25 -4 25 -9z m-143
-297 c-3 -3 -12 -4 -19 -1 -8 3 -5 6 6 6 11 1 17 -2 13 -5z"/>
<path d="M2703 4332 c-40 -61 -48 -77 -66 -139 l-16 -53 377 6 c207 3 456 7
552 8 l175 2 3 102 c2 92 1 102 -15 103 -10 0 -214 2 -453 5 -239 2 -456 6
-481 8 -44 4 -46 3 -76 -42z"/>
<path d="M3860 4351 c0 -10 51 -164 59 -180 6 -10 39 -13 152 -11 79 1 235 3
346 4 112 1 205 5 208 7 5 6 -43 159 -54 171 -8 9 -711 18 -711 9z"/>
<path d="M4891 4258 l-29 -87 351 6 c194 2 354 6 356 8 5 6 -41 140 -52 146
-5 4 -93 7 -196 8 -102 1 -234 3 -293 4 l-108 2 -29 -87z"/>
<path d="M5841 4265 c-12 -37 -21 -70 -21 -74 0 -4 78 -6 173 -5 94 1 254 3
354 4 l181 2 22 59 c13 33 21 62 18 64 -3 3 -163 8 -356 11 l-351 5 -20 -66z"/>
<path d="M2608 4037 c-3 -45 8 -172 16 -185 3 -5 78 -7 168 -6 90 1 268 3 396
4 219 3 231 4 217 20 -27 29 -23 70 7 93 33 24 150 34 240 19 31 -5 61 -6 66
-3 5 3 8 24 8 45 l-1 39 -235 3 c-129 2 -380 5 -557 8 l-322 4 -3 -41z"/>
<path d="M3985 3963 l32 -98 354 3 c195 2 355 4 356 5 3 3 -52 165 -58 171 -3
3 -165 8 -361 11 l-355 6 32 -98z"/>
<path d="M4796 3972 c-14 -42 -26 -82 -26 -88 0 -8 66 -10 228 -8 125 2 325 6
445 7 119 2 219 6 222 9 2 2 -7 35 -20 73 -14 37 -25 69 -25 70 0 2 -60 4
-132 5 -73 1 -253 3 -400 5 l-267 4 -25 -77z"/>
<path d="M5772 4030 c-12 -8 -54 -129 -48 -138 3 -5 42 -7 88 -6 46 1 201 3
345 5 144 1 266 5 271 8 9 6 42 96 42 116 0 7 -80 12 -267 14 -148 2 -303 4
-346 5 -43 1 -81 -1 -85 -4z"/>
<path d="M1809 3761 c42 -59 78 -150 80 -204 1 -18 16 -18 334 -14 182 3 333
6 334 6 2 1 1 16 -2 34 -2 17 -6 52 -10 77 -9 79 -17 110 -28 117 -7 4 -173 9
-371 11 l-359 4 22 -31z"/>
<path d="M2650 3770 c0 -15 55 -113 96 -170 l37 -51 476 6 c261 3 477 7 478 9
5 4 -72 82 -142 143 l-71 61 -437 6 c-287 4 -437 3 -437 -4z"/>
<path d="M4083 3665 l32 -97 505 6 c535 7 1264 16 1542 20 92 1 170 4 172 7 5
5 44 123 42 126 -1 1 -177 5 -391 8 -215 3 -520 7 -680 10 -159 2 -507 7 -772
10 l-482 6 32 -96z"/>
<path d="M1895 3460 c-9 -57 -36 -140 -56 -174 -10 -17 -19 -34 -19 -39 0 -4
158 -5 352 -2 271 3 353 7 359 17 10 16 21 97 23 170 l1 53 -135 2 c-74 2
-222 4 -328 5 l-192 3 -5 -35z"/>
<path d="M2881 3457 c13 -13 75 -63 136 -112 l113 -88 217 2 c373 5 564 9 568
13 4 4 -79 177 -92 188 -4 5 -224 11 -487 14 l-479 6 24 -23z"/>
<path d="M4171 3460 c-19 -5 -19 -8 11 -97 l31 -92 246 4 c135 2 469 7 741 10
272 4 587 8 700 10 113 2 235 4 271 4 l65 1 18 58 c10 31 20 62 22 67 5 11 27
11 -636 19 -543 7 -1269 17 -1375 19 -41 1 -83 0 -94 -3z"/>
<path d="M3206 3153 c8 -43 -11 -80 -53 -101 -58 -30 -217 -22 -408 18 -49 11
-100 23 -112 26 -21 6 -22 4 -20 -68 l2 -73 160 2 c484 4 1161 15 1166 19 7 4
5 181 -2 188 -2 3 -169 7 -371 10 l-368 6 6 -27z"/>
<path d="M4256 3146 c30 -99 48 -152 55 -160 5 -5 110 -8 246 -7 131 2 327 4
435 4 109 1 199 5 199 10 1 4 2 10 4 15 21 76 27 79 44 21 l12 -40 382 5 c210
2 409 5 442 5 l61 1 22 67 c12 37 20 68 19 69 -1 2 -180 5 -397 8 -217 3 -586
9 -820 12 -234 3 -489 7 -568 8 -139 2 -142 2 -136 -18z"/>
<path d="M2614 2776 c0 -107 3 -120 26 -118 3 0 258 4 565 7 308 4 578 8 599
9 37 1 40 4 69 60 16 33 36 78 42 100 l13 41 -177 2 c-97 1 -392 4 -657 8
l-481 7 1 -116z"/>
<path d="M4350 2861 c0 -9 41 -133 53 -158 10 -22 12 -22 226 -18 119 2 271 4
338 4 l121 1 26 78 c14 42 26 80 26 84 0 4 -80 7 -177 8 -98 1 -276 3 -395 4
-120 2 -218 1 -218 -3z"/>
<path d="M5305 2850 c-3 -4 7 -41 21 -82 l25 -75 157 3 c86 1 241 3 344 4
l187 3 9 26 c18 46 32 94 32 105 0 9 -90 13 -327 15 -181 2 -354 4 -386 5 -32
2 -60 0 -62 -4z"/>
<path d="M800 2615 c0 -8 96 -68 169 -104 69 -35 156 -67 236 -87 17 -4 32 -8
35 -9 3 -1 37 -5 75 -10 263 -31 514 27 740 169 37 23 38 25 15 26 -163 7
-1270 20 -1270 15z"/>
<path d="M2622 2591 c-4 -3 -8 -31 -9 -63 l-1 -56 42 -11 c22 -5 57 -14 76
-18 19 -4 37 -7 40 -8 3 -1 27 -4 53 -9 27 -4 57 -9 68 -11 38 -8 196 -18 279
-18 211 -1 348 31 492 115 106 62 106 68 2 68 -218 2 -924 11 -976 14 -32 1
-61 0 -66 -3z"/>
<path d="M4450 2564 c0 -3 7 -30 16 -60 l15 -54 263 0 263 0 17 43 c23 61 21
67 -21 68 -21 0 -154 2 -295 4 -142 3 -258 2 -258 -1z"/>
<path d="M5404 2549 c-2 -4 3 -27 12 -53 l16 -46 263 0 262 0 13 45 c7 25 11
47 9 49 -7 7 -570 12 -575 5z"/>
</g>
</svg>
