<svg id="Capa_1" xmlns="http://www.w3.org/2000/svg" viewBox="0 0 529.1 192.3"><style>.st0{fill:white;} .st1{fill:#0D5EFF;}</style>
	<g id="XMLID_2_"><g id="XMLID_1_">
		<circle id="XMLID_83_" class="st0" cx="104.8" cy="96.1" r="60.1"/>
		<path id="XMLID_82_" class="st1" d="M116.2 132.3c11.8 0 21.3-9.6 21.3-21.3v-.8h-13v.8c0 4.6-3.8 8.4-8.4 8.4h-19L134.7 60H81.5l-7.4 13H111l-37.5 59.3h42.7z"/>
	</g>
	<g id="XMLID_45_">
		<path fill="white" id="XMLID_61_" d="M235.7 72.9h14.8v46.4h-14.8z"/>
		<path fill="white" id="XMLID_59_" d="M293.8 104.2l3.9 12.1c-3.1 2.1-7.8 4.2-13.6 4.2-14.8 0-25.2-10.1-25.2-24.3s10.8-24.4 25.1-24.4c6 0 10.5 1.9 13.8 4.2l-4 12.5c-2.6-2.1-5.8-3.5-9.3-3.5-7 0-10.9 4.9-10.9 11.1 0 6.8 4.6 11.4 11.4 11.4 3.5 0 6.7-1.6 8.8-3.3z"/>
		<path fill="white" id="XMLID_58_" d="M350.3 72.9h14.8v46.4h-14.8z"/>
		<path fill="white" id="XMLID_56_" d="M392.4 107.1h18.3v12.3h-36.8v-8.8l18-25.3h-17.6V72.9h36.2v8.9l-18.1 25.3z"/>
		<path fill="white" id="XMLID_55_" d="M419.6 72.9h14.8v46.4h-14.8z"/>
		<path fill="white" id="XMLID_52_" d="M460.7 89.6c4.1 0 7.3 1 8.9 1.7v-1.7c0-2.8-2.3-5-7.1-5-4.1 0-8 1.1-11.7 2.9l-5.5-9.9c5-3.3 11.2-5.7 18.9-5.7 16 0 20.1 8.2 20.1 18.8v28.7h-13.2l-.8-2.6c-2.4 2.4-5.8 3.7-10.5 3.7-9.1 0-17.2-5.5-17.2-15.6 0-9.2 7.1-15.3 18.1-15.3zm3 19.6c3.5 0 6.2-1.7 6.2-4.8 0-3.2-2.7-5-6.3-5-3.5 0-6.2 1.9-6.2 5s2.8 4.8 6.3 4.8z"/>
			<g id="XMLID_49_">
				<path fill="white" id="XMLID_50_" d="M330.3 85.2v34.2h-15.1V85.2h-10.8V72.9h36.8v12.2h-10.9z"/>
			</g>
			<g id="XMLID_46_">
				<path fill="white" id="XMLID_47_" d="M205.8 105.5v13.9h-14.7V72.9h35.8v12.2h-21.1v8.2h19.4v12.1h-19.4z"/>
			</g>
		</g>
	</g>
</svg>