<?xml version="1.0" encoding="utf-8"?>
<!-- Generator: Adobe Illustrator 19.2.0, SVG Export Plug-In . SVG Version: 6.00 Build 0)  -->
<svg version="1.1" id="Capa_1" xmlns="http://www.w3.org/2000/svg" xmlns:xlink="http://www.w3.org/1999/xlink" x="0px" y="0px"
	 viewBox="0 0 534 146" style="enable-background:new 0 0 534 146;" xml:space="preserve">
<style type="text/css">
	.st0{fill:#FFFFFF;}
	.st1{fill:#0D5EFF;}
</style>
<g id="XMLID_2_">
	<g id="XMLID_1_">
		<circle id="XMLID_83_" class="st0" cx="74.8" cy="73" r="72.3"/>
		<path id="XMLID_82_" class="st1" d="M88.5,116.6c14.2,0,25.6-11.6,25.6-25.6v-1H98.5v1c0,5.5-4.6,10.1-10.1,10.1H65.5l45.3-71.5
			h-64l-8.9,15.6h44.4l-45.1,71.4H88.5z"/>
	</g>
	<g id="XMLID_45_">
		<path id="XMLID_61_" class="st0" d="M232.3,45.1h17.8v55.8h-17.8V45.1z"/>
		<path id="XMLID_59_" class="st0" d="M302.3,82.8l4.7,14.6c-3.7,2.5-9.4,5.1-16.4,5.1c-17.8,0-30.3-12.2-30.3-29.2
			s13-29.4,30.2-29.4c7.2,0,12.6,2.3,16.6,5.1l-4.8,15c-3.1-2.5-7-4.2-11.2-4.2c-8.4,0-13.1,5.9-13.1,13.4c0,8.2,5.5,13.7,13.7,13.7
			C295.9,86.7,299.7,84.8,302.3,82.8L302.3,82.8z"/>
		<path id="XMLID_58_" class="st0" d="M370.3,45.1h17.8v55.8h-17.8V45.1z"/>
		<path id="XMLID_56_" class="st0" d="M420.9,86.2h22V101h-44.3V90.5L420.3,60h-21.2V45.1h43.6v10.7
			C442.7,55.8,420.9,86.2,420.9,86.2z"/>
		<path id="XMLID_55_" class="st0" d="M453.7,45.1h17.8v55.8h-17.8V45.1z"/>
		<path id="XMLID_52_" class="st0" d="M503.1,65.2c4.9,0,8.8,1.2,10.7,2v-2c0-3.4-2.8-6-8.5-6c-4.9,0-9.6,1.3-14.1,3.5l-6.6-11.9
			c6-4,13.5-6.9,22.7-6.9c19.3,0,24.2,9.9,24.2,22.6V101h-15.9l-1-3.1c-2.9,2.9-7,4.5-12.6,4.5c-11,0-20.7-6.6-20.7-18.8
			C481.4,72.5,489.9,65.2,503.1,65.2L503.1,65.2z M506.8,88.8c4.2,0,7.5-2,7.5-5.8c0-3.9-3.2-6-7.6-6c-4.2,0-7.5,2.3-7.5,6
			S502.5,88.8,506.8,88.8z"/>
		<g id="XMLID_49_">
			<path id="XMLID_50_" class="st0" d="M346.2,59.9V101H328V59.9h-13V45.1h44.3v14.7h-13.1V59.9z"/>
		</g>
		<g id="XMLID_46_">
			<path id="XMLID_47_" class="st0" d="M196.3,84.3V101h-17.7v-56h43.1v14.7h-25.4v9.9h23.3v14.6h-23.3V84.3z"/>
		</g>
	</g>
</g>
</svg>
