<svg xmlns="http://www.w3.org/2000/svg" width="409.5" height="101.1" viewBox="0 0 409.5 101.1"><style>.st0{fill:white;} .st1{fill:white;} .st2{fill:white;}</style><path class="st0" d="M96.3 3.4c-.7 0-1.3.6-1.3 1.3 0 .4.1.7.4.9l-3.3 3.8.7-4.7c.1 0 .3.1.4.1.8 0 1.4-.6 1.4-1.4 0-.8-.6-1.4-1.4-1.4-.8 0-1.4.6-1.4 1.4 0 .4.2.8.5 1.1L89.7 8l.3-4.2h.1c.8 0 1.4-.6 1.4-1.4 0-.8-.6-1.4-1.4-1.4-.8 0-1.4.6-1.4 1.4 0 .5.2.9.6 1.2L87 7.4l-.1-4.1c.7-.1 1.3-.7 1.3-1.4 0-.8-.6-1.4-1.4-1.4-.8 0-1.4.6-1.4 1.4 0 .5.3.9.7 1.2l-1.8 4.2-.8-4.3c.6-.2 1.1-.7 1.1-1.4 0-.8-.7-1.4-1.5-1.4s-1.4.6-1.4 1.4c0 .6.3 1.1.8 1.3l-1.3 4.5-1.3-4.6c.5-.2.9-.7.9-1.3 0-.8-.6-1.4-1.4-1.4-.8 0-1.4.6-1.4 1.4 0 .6.4 1.2 1 1.4l-1 4.6L76.4 3c.6-.2 1-.7 1-1.4 0-.8-.6-1.4-1.4-1.4-.8 0-1.5.6-1.5 1.4 0 .6.4 1.1.9 1.3L75 8.2l-1.9-4.4c.5-.2.8-.6.8-1.1 0-.7-.6-1.2-1.3-1.2-.7 0-1.3.6-1.3 1.2s.4 1.1 1 1.2l.2 4.9S72 8.1 71.2 7c-.4-.6-.9-1.2-1.4-1.6.4-.2.7-.6.7-1.1 0-.7-.6-1.2-1.3-1.2-.7 0-1.3.6-1.3 1.2 0 .7.6 1.2 1.3 1.2h.2c.3.8.9 2.2 1.2 3.1.5 1.4 1.1 3.9 1.1 3.9s-.3.1-.2.5c.1.4.5.3.5.3l.1.6s-.4.2-.3.6c.1.4.6.4.6.4l.1.5s-.2.2.2.9c.3.7 3 2.1 6.4 2.5 3.4.4 7.7.3 10.4-.3 2.7-.5 4.2-1.4 4.2-1.9.1-.5-.1-.7-.1-.7v-.4s.4.2.6-.4c.1-.5-.4-.9-.4-.9v-.4s.4.2.6-.2c.2-.4-.3-1.1-.3-1.1L95.8 6c.2 0 .3.1.5.1.8 0 1.4-.6 1.4-1.3 0-.8-.6-1.4-1.4-1.4z"/><path class="st1" d="M97.9 69.2c11.1 15 23.1 28.7 44.7 28.7 9.7 0 17.9-2.6 17.9-6.9 0 0 .2-.1.6-.1.7 0 2.1.3 2.1 2.1 0 5.4-14.3 7.7-21.4 7.7-23.1 0-38.9-11.3-51.6-29.5L81.7 59c-2.1-3-4.1-4.1-6.5-4.1-1.1 0-1.9.2-2.7.4v17.1c0 3.7 1.5 4.8 4.7 5.3l2.7.4v2.4s-5.1-.2-11.4-.2c-5.7 0-11.1.2-11.1.2v-2.4l2.1-.4c3.5-.7 5.3-3.2 5.3-8V31.6c0-3.7-1.4-4.8-4.7-5.3l-2.7-.4v-2.4s5.1.2 11.5.2c5.7 0 11.1-.2 11.1-.2v2.4l-1.6.4c-3.3.8-5.8 3.2-5.8 8v17.3h5.3l15.2-21.5c.4-.6.6-1.1.6-1.5 0-1.3-1.1-2-2.8-2.3l-2.4-.3v-2.4s6.7.2 11.3.2c4 0 9.9-.2 9.9-.2V26l-2.7.3c-4.5.6-7.5 2.6-9.9 6l-13 18.1 13.8 18.8z"/><path class="st1" d="M118.5 67.2v1.5s-4.1-.2-7.5-.2c-3.6 0-7.3.2-7.3.2v-1.5l1.2-.2c2.3-.2 2.7-1.7 2.7-3.8V50.4c0-2.5-1.3-3.4-5.8-3.4l-.4-1.3c7.1-.5 12.8-2.6 12.8-2.6v20.5c0 2.7.8 3.2 2.3 3.4l2 .2zm-8.4-34.9c2.4 0 4.2 1.7 4.2 3.9 0 2.1-1.9 3.9-4.2 3.9-2.3 0-4.2-1.7-4.2-3.9.1-2.2 2-3.9 4.2-3.9zM164.1 78.2v2.2s-5.4-.2-8.9-.2c-4 0-9.7.2-9.7.2v-2.2l1.7-.3c2.4-.5 4.3-2.4 4.3-5.4V54.2c0-4.4-2.2-6.7-6.4-6.7-4.3 0-7.4 2.8-10.5 3.3v22.3c0 3.8.6 4.5 3.2 4.8l2.6.3v2.2s-5.6-.2-9.3-.2c-3.7 0-10.1.2-10.1.2v-2.2l2.3-.3c2.4-.3 4.3-2.4 4.3-5.4V53.1c0-3.5-1.4-4.9-6.1-4.9l-.5-1.8c7.6-.7 13.6-3.7 13.6-3.7v5.9c1.9-.6 6.8-6 13.2-6 7.2 0 10.6 4.7 10.6 10.7v19.8c0 3.8.6 4.5 3.2 4.8l2.5.3zM198.3 90c0-5.3-5.1-6.4-13.5-6.4-8.6 0-15-.9-15-6.9 0-4.9 4.8-6.8 8-7.4-5.8-1.5-10-5.8-10-12.6 0-7.1 6-14.1 16.2-14.1 3.4 0 5.7.6 8.7 2.3 1.5.2 3 .5 4.5.5 2.8 0 5.5-.6 7.4-1.6.7.6 1.1 1.5 1.1 2.4 0 1.6-1.3 3.4-4.3 3.4-2.8 0-4.1-1.7-5.9-2.3 1.9 2.3 2.9 5 2.9 8.1 0 6.2-4.3 13.5-14.4 14.2-3.9.8-8 1.8-8 4.5 0 2.4 3.1 3 9.9 3 11.4 0 18 2.4 18 10.4 0 8.4-10 13.6-22.7 13.6-7.4 0-15.2-3-15.2-9.8 0-4.4 3.2-6.2 5.8-6.2 1.6 0 3 .7 3.7 1.8-1.6 1.1-2.5 2.7-2.5 4.5 0 5 5.1 6.5 11.6 6.5 5.8.1 13.7-2 13.7-7.9zm-23.6-34.3c0 7.6 4.4 11.3 9 11.3 4.7 0 8-3.5 8-10.4 0-5.5-3.2-11.2-9.2-11.2-5.5 0-7.8 4.3-7.8 10.3zM243.7 56c0 7.6-5.5 14.9-14.9 14.9-7.2 0-13.2-5-13.2-13.6 0-7.6 5.5-14.9 15-14.9 7.2 0 13.1 5.1 13.1 13.6zm-5.5 1.2c0-8.1-4.5-12.3-9.2-12.3-5.5 0-7.8 4.7-7.8 11.2 0 8 4.5 12.3 9.2 12.3 5.6.1 7.8-4.7 7.8-11.2zM247.2 56.4l-.2-1.3s2.8-.6 4.1-1.8V51c0-7.5 4-15 12.6-15 4.7 0 7.1 1.8 7.1 3.9 0 1.6-1.5 2.7-3 2.7-.3 0-.6-.1-.6-.1-.3-.9-1.6-4.1-4.9-4.1-4.3 0-6.1 4.4-6.1 10.7v4.5h9.5v2.8h-9.5v18.3c0 2.8.7 3.4 2.5 3.5l3.2.2v1.8s-5.6-.1-8.2-.1c-2.7 0-7.3.1-7.3.1v-1.8l1.6-.2c1.8-.2 3.1-1.7 3.1-3.9v-18h-3.9zM303.8 23.1l18.8 49.7c1 2.7 2.9 4.6 5.6 5l2.7.4v2.3s-4.7-.3-10.9-.3c-7.5 0-11.7.3-11.7.3v-2.3l2.1-.4c3.1-.6 4.1-1.6 4.1-3.6 0-1.3-.6-3-1-4.1l-3.8-10.6h-18.1L287.2 72c-.3 1-.5 1.8-.5 2.6 0 1.9 1 2.7 4.4 3.2l3 .4v2.3s-5.1-.2-11.3-.2c-4.7 0-7.9.2-7.9.2v-2.3l2.1-.4c3.4-.6 4.9-3.1 6.4-7.3l17.1-46.9 3.3-.5zm-11.3 33.1h15.9l-7.9-22.6-8 22.6z"/><path class="st1" d="M348 98.5v2.1h-20v-2.2l2-.3c2.4-.4 4.3-2.4 4.3-5.4V53.5c0-3.5-1.4-4.8-6-4.8l-.4-1.8c7.4-.7 13.3-3.7 13.3-3.7v4.9c3.3-1 6-5 12.3-5 9.5 0 15 7.4 15 17.9 0 10.7-7.1 20.8-22.2 20.8-3.1 0-5.1-.4-5.1-.4v12c0 3.8.7 4.5 3 4.7l3.8.4zm-6.9-48.1v22.2c0 3.4 1.8 6.3 7 6.3 7 0 13.2-5.7 13.2-15.7 0-7.7-3.3-15.6-11.8-15.6-3.1 0-6.2 2.4-8.4 2.8zM389 98.5v2.1h-20v-2.2l2-.3c2.4-.4 4.3-2.4 4.3-5.4V53.5c0-3.5-1.4-4.8-6-4.8l-.4-1.8c7.4-.7 13.3-3.7 13.3-3.7v4.9c3.3-1 6-5 12.3-5 9.5 0 15 7.4 15 17.9 0 10.7-7.1 20.8-22.2 20.8-3 0-5.1-.4-5.1-.4v12c0 3.8.7 4.5 3 4.7l3.8.4zm-6.8-48.1v22.2c0 3.4 1.8 6.3 7 6.3 7 0 13.2-5.7 13.2-15.7 0-7.7-3.3-15.6-11.8-15.6-3.2 0-6.2 2.4-8.4 2.8z"/><path class="st2" d="M49.5 50.1s-.1-1-.3-1.9c-.2-.9-.4-1.3-.7-1.9-.2-.5-1.4-6.2-1.6-7.5-.2-1.1-.5-2.2-.5-2.7-.1-.5-.3-1-1.1-.9-.8 0-2 .7-3 1.4-.9.6-3.7 2.1-5.7 3.1-2.1-4-5.5-7.2-5.6-7.3-.1-.1-.1-.2-.2-.4-1-1.8-1.2-1.8-1.3-2.9.4 0 .7-.1.9-.1.7-.1 1.7-.2 2.8-.1 1 0 2.3.5 3 .4.7-.2.4-1.5.4-1.5s.3-.1 1-.4c.7-.3 1.2-1.7.7-2.1-.5-.4-4.5-2-5-2.1-.5-.1-.7-.2-.7-.5 0-.6-.8-.8-1.3-.8-.5-.1-1.5-1.1-3.9-1.8.1-.1.3-.2.4-.4 1-.8 1.2-2.2 1-2.7-.2-.7-.7-3 .7-3.6-1.6.1-2.1 1.9-2.1 3.8 0 1.1-.9 2-1.6 2.5-.4 0-.7-.1-1-.1-.1-.4-.1-.8-.2-1.1.2-.2.3-.4.4-.8.2-.9 0-2.1 0-2.8 0-.7 1-1.5 1-1.5s-.7 0-1.2.6c-.4.6-.2 1.4-.4 2.3-.1.3-.2.5-.3.7-.4-.7-.9-1.3-.7-2.5.2-6.3 12.2-5 11.5-12.9-.3 3-3.1 4.5-5.9 6 .2-.5.4-1.4.4-2.6 0-2.1-1-3.6-1-3.6s.5 1.5.2 3.9c-.2 1.3-.9 2.5-1.4 3.1-.8.4-1.5.8-2.2 1.3-.1 0-.1.1-.2.1l-.1.1c-.3.2-.6.5-.9.8 0-2-1.3-2.9-1.3-2.9.5.9.4 3 .3 3.9-.2.2-.3.4-.4.6l-.3.6c0 .1 0 .1-.1.2-.5 0-1.2-.2-1.9-.5-1.1-.6-1-2.6-1-2.6s-.6 1.1-.1 2.4c.5 1.3 1.9 1.6 2.7 1.7v.2c-.1 1.2 0 2 .2 2.7 0 .1.1.1.1.2-.7.2-1.8.3-2.4-.1-.9-.5-1.4-1.9-1.4-1.9s-.1.6.2 1.2c.3.9.8 1.5 1.8 1.8.6.2 1.7 0 2.3-.1.2.4.4.7.4 1.1 0 .2 0 .5-.1.7-.3.3-.5.6-.7 1.1-2.2-.6-6.4-2.4-5.7-8.1.3-2.7 2-4.1 3.9-5.1.6-.3 1.6-.8 2.3-1.1 2.7-1.3 5-2.7 3.7-7.2-.5 4.4-3.4 5.4-6.2 6.6-.1 0-.2.1-.3.1.1-.3.1-.6 0-.8-.3-.8-1.4-1.7-2.4-2.4-1.1-.8.1-2.8.1-2.8s-.6.5-.9.9c-.5.7-.7 1.9-.3 2.4.5.5 2.1 1.2 2.2 2.2.1.5-.1.9-.2 1.2-1.3 1.2-2.4 2.1-3.1 3.7-.1.2-.1.3-.2.5-.4-.6-1-1.1-1.5-1.4-.9-.6-1.4-1.1-1.4-1.5 0-.6.4-.9.6-1.3.1-.3.3-.8.3-.8s-1.3 1.1-1.5 1.8c-.2.6.2 1.5.8 2 .6.4 1.4.9 1.9 1.7.2.4.4 1.1.5 1.6v.3c-.1.8 0 1.6 0 2.3-.2-.1-.4-.2-.7-.3-.7-.2-1.9-.4-3.1-.5-1.1-.1-1.9-.3-2.1-.6-.4-.6-.3-2.3-.3-2.3s-.5 1-.5 2.3c.1 1 1.9 1.4 2.7 1.5.9.1 2.2.3 3.1.7.5.2.9.7 1.2 1.1v.2c.3.7.6 1.4 1 1.9-.2.2-.6.7-1.4.5-1.2-.2-1.7-.8-2.9-.6-1.2.2-1.5.9-1.5.9s1.8-.7 3-.1c.6.3 1.5 1 2.8.8.5-.1.9-.2 1.1-.4l.2.2c1.3 1.1 2.7 1.7 3.6 2 .3.1.6.1.8.1 0 .2-.1.5-.1.7-.4 0-.9-.1-1.3-.3-.7-.4-2.4-.8-4.2-.2-1.8.6-2.9 1.4-4 1.3 0 0 1.6 1.8 5.2 2.3 2 .2 3.3.2 4 .2-.3 6.2.7 11.7 1.2 13.9-.1.2-.3.5-.4.7-.9 1.4-1 3.4-.9 4.6 0 1.1-.2 1.5-2.3 3.6l-.8.8c-1.2 1.3-2.7 3-4.7 6.3 0 .1-.1.1-.1.2-.3.6-2.2 2.1-4.5 4.6-.8.9-1.9 2.4-2.4 3.2-.3.4-1.5 1-2.1 1.2-.1 0-.2.1-.4.1-.8.3-1.3.6-1.8 1.2-.8.8-1.1 1.9-1.1 1.9s.7-.9 1.6-1.2c.9-.3 2.4-.3 4-.9 1.5-.5 2.6-2 2.9-2.4-.5.8-1.7 3-1.7 6.1 0 3.6 1.5 5.8 1.7 6.7.2.9-1 1.7-1.8 2.2-.8.5-3.1 2-3.4 2-.4 0-.7.2-.8 1.3-.1 1.1-1.4 6.8-2.1 9C.7 94.6 0 95.6.1 95.9c.1.2.8.4.8.4s-.3 1.5.4 2.2c.8.7 3 1.9 3 1.9s.5-2-.3-3.6c0-.1-.1-.1-.1-.2-.6-1.6-.8-2.7-.4-4.5.4-1.8 1.6-5.4 2.1-6.7.5-1.3 2.4-2.3 3.9-2.7 1.5-.5 6.4-2.3 7.7-3.7 1.3-1.4 1.6-2.5 2-5.1.2-1 .4-2.3.6-3.4.6.4 1.3.9 2.1 1.3 1.3.7 2.7.8 3.6.7-.1.4-.6 2.7-1 3.6-.4 1-1.2 1.4-1 1.9.1.1.1.2.2.3.5.5 1.8 1.1 2.3 1.5 1.8 1.3 6.3 5.5 6.7 6.5.4 1.1 0 1.7.7 1.7.5 0 .8 0 1 .6.2.6.2 2.4 1.5 2.4.8.1 2 0 2.5-.3.7-.4 1.5-.7 1.2-1.2-.2-.5-2.1-2.2-2.5-2.3-.4-.1-.7 0-.8-.4-.2-.4-3-2.9-4.3-4.1-1.3-1.2-4-4.1-4.6-4.7-.6-.6-.2-1 .3-1.7.5-.6 4.1-5.3 4.3-6.2.2-.9-.3-2.1-1.5-4-.7-1.1-2.3-2.7-3.5-3.8.7-.4 1.2-.9 1.8-1.5 1.4-1.3 2.7-3.1 3.2-3.8.7-1 1.5-2.1 3-3.6h3c1.8-.1 3.3.1 4 1 .7.9.5 1.6.5 2.8 0 1.2 0 4.9-.5 5.6-.4.7-.4 3 0 3.4l-.7.7c-.4.4-.6 1-.4 2.2.1.5.3 1 .5 1.4.8 1.3 1.4 1.4 1.7.5.2-.6.3-1.9.4-2.9.2.2.4.3.5.3 0 0 .2-1.5.2-2.5s-.3-3-.3-3.8c0-.9.4-5.9.6-7.1.2-1.2.3-1.9-1.2-3-.4-.3-.9-.7-1.6-1.2-1.2-.9-2.6-1.9-3.5-2.5.1-.6.2-1.2.2-1.9.6-.6 1.5-1.5 2.4-2.5 1.5-1.8 4.5-5.5 4.5-5.5s.2 1.1.6 2.6c.4 1.4 1.2 3.8 1.2 4.4 0 .6-.4 2.1.1 2.6.1.1.2.2.3.2-.1.2-.4.7-.7 1.1-.3.5-.3 1.2.1 2.2.3.6.7 1 1 1.3.7.7 1.1.6 1.2-.1.1-.6-.1-2.3-.2-3.2.2.5.6.6.6.6zM28.5 25c-.8-.2-1.6-1.1-1.6-1.1s1-.4 1.8-.3c.9.1 2 1.2 2 1.2s-1.4.3-2.2.2z"/></svg>