<svg xmlns="http://www.w3.org/2000/svg" width="744.094" height="1052.362"><path d="M417.308 490.142a97.114 97.114 0 1 0-69.61 0L282.28 660.597a279.688 279.688 0 1 1 200.444 0z" text-anchor="middle" fill="#3fa652" stroke="#21552a" stroke-width="23.30744424" stroke-linejoin="round"/><text y="-643.908" x="-402.742" style="line-height:125%;-inkscape-font-specification:Sans" transform="matrix(3.13045 0 0 3.19136 1289.804 2829.953)" font-size="37.006" letter-spacing="0" word-spacing="0" fill="#20552a" font-family="Sans"><tspan style="-inkscape-font-specification:Sans" y="-643.908" x="-402.742" font-size="35.155" fill="#000" font-family="OpenSymbol">open</tspan></text><text y="-644.536" x="-299.917" style="line-height:125%;-inkscape-font-specification:Sans" transform="matrix(3.13045 0 0 3.19136 1289.804 2829.953)" font-size="37.006" letter-spacing="0" word-spacing="0" fill="#20552a" font-family="Sans"><tspan style="-inkscape-font-specification:Sans" y="-644.536" x="-299.917" font-size="35.155" fill="#000" font-family="OpenSymbol">source</tspan></text><text y="-609.43" x="-368.474" style="line-height:125%;-inkscape-font-specification:Sans" transform="matrix(3.13045 0 0 3.19136 1289.804 2829.953)" font-size="37.006" letter-spacing="0" word-spacing="0" fill="#20552a" font-family="Sans"><tspan style="-inkscape-font-specification:Sans" y="-609.43" x="-368.474" font-size="35.155" fill="#000" font-family="OpenSymbol">initiative</tspan></text><path transform="matrix(1.0719 0 0 1.07 -49.616 -44.408)" d="M669.286 646.648c0 13.018-10.554 23.57-23.572 23.57-13.018 0-23.57-10.552-23.57-23.57s10.552-23.572 23.57-23.572 23.572 10.554 23.572 23.572z" fill="none" stroke="#000" stroke-width="6.665"/><text y="-685.33" x="-188.297" style="line-height:125%;-inkscape-font-specification:OpenSymbol Bold" font-size="12.655" font-weight="bold" letter-spacing="0" word-spacing="0" font-family="OpenSymbol" transform="matrix(3.16076 0 0 3.16076 1222.714 2826.746)"><tspan y="-685.33" x="-188.297">R</tspan></text></svg>