<svg id="Capa_1" xmlns="http://www.w3.org/2000/svg" viewBox="0 0 30 12"><style>.st0{fill:#FFFFFF;}</style><path class="st0" d="M10.1.8l.5.5c.1.2.2.5.2.8 0 .3-.1.6-.2.8-.1.3-.3.4-.5.6s-.4.3-.7.3c-.3.1-.6.1-.8.1h-.1l-.4-.7h.5c.8 0 1.2-.3 1.2-1 0-.4-.1-.6-.3-.7s-.6-.3-1-.3h-.8v9.5h.8c.4 0 .7-.1.9-.2.2-.2.3-.4.3-.7 0-.7-.4-1-1.2-1h-.4l.4-.8h.1c.3 0 .6.1.8.1.3.1.5.2.7.3.2.2.3.3.5.6.1.2.2.5.2.8 0 .3-.1.6-.2.8-.1.2-.3.4-.5.5-.2.1-.4.2-.7.3-.3.1-.6.1-.8.1H6.7V.5h1.9c.3 0 .6.1.8.1s.5.1.7.2zM4 .5v11.1H2.1c-.3 0-.6-.1-.8-.1-.3-.1-.5-.2-.7-.3l-.5-.5c0-.3-.1-.6-.1-.9 0-.3.1-.6.2-.8.1-.3.3-.4.5-.6s.3-.2.6-.3c.2 0 .6-.1.8-.1h.1l.5.8h-.5c-.8 0-1.2.3-1.2 1 0 .4.1.6.3.7.2.2.5.2.9.2H3V1.2h-.8c-.4 0-.7.1-.9.2-.3.2-.4.4-.4.8 0 .7.4 1 1.2 1h.5l-.4.8h-.1c-.2 0-.6-.1-.8-.1-.3-.1-.5-.2-.7-.3C.4 3.4.3 3.2.2 3c-.1-.3-.2-.5-.2-.8s.1-.6.2-.8c.1-.2.3-.4.5-.5.1-.2.3-.3.6-.4.3 0 .5-.1.8-.1C2.1.5 4 .5 4 .5zm.8 0h1v11.1h-1V.5zM16.4 8h.6v3h1.4v.5h-2.1V8zm6.5.5l-.9 3h-.6L22.5 8h.7l1.1 3.5h-.6l-.3-.9H23l-.3-.6h.6l-.4-1.5zM19 8h.6v3H21v.5h-2V8zm8.7.9c0-.1 0-.3.1-.4.1-.1.1-.2.2-.3.1-.1.2-.1.4-.2h.4c.2 0 .4 0 .6.1.2.1.4.2.5.4l-.3.3c-.1-.1-.2-.1-.4-.2-.1-.1-.3-.1-.4-.1s-.3.1-.4.1c-.1.1-.1.1-.1.3 0 .1 0 .1.1.1 0 .1.1.1.1.1l.2.1.9.4.2.2c.1.1.1.1.1.2s.1.2.1.4 0 .3-.1.4c-.1.1-.1.2-.2.4-.1.1-.2.1-.4.2h-.6s-.4-.1-.6-.1-.4-.2-.6-.4l.4-.4c.1.1.3.2.4.3s.4.1.5.1c.2 0 .4-.1.4-.1.1-.1.1-.2.1-.4 0-.1 0-.1-.1-.2 0-.1-.1-.1-.1-.1L28 9.6l-.2-.2c-.1-.1-.1-.1-.1-.3v-.2zm-3-.9H26.4c.1 0 .3.1.4.1s.2.2.3.3c.1.1.1.3.1.5 0 .3-.1.5-.2.6-.1.1-.3.3-.5.4l.9 1.4h-.7l-1-1.8h.2c.2 0 .4-.1.6-.1s.2-.2.2-.4-.1-.4-.2-.4c-.1-.1-.3-.1-.6-.1h-.5v3h-.6L24.7 8zm-9.6 0h.6v3.5h-.6V8zm-.6.5c.1.1.1.3.1.5s0 .4-.1.5c-.1.1-.1.3-.3.4-.1.1-.3.2-.4.2-.1.1-.4.1-.5.1l-.3-.5h.2c.5 0 .8-.2.8-.7 0-.2-.1-.4-.2-.4-.1-.1-.3-.1-.6-.1h-.5v3h-.6V8h1.1c.2 0 .4 0 .5.1.1 0 .3.1.4.2.3 0 .3.1.4.2z"/></svg>