<svg xmlns="http://www.w3.org/2000/svg" viewBox="0 0 820.8 237.44"><defs><style>.cls-1{fill:#fff;}</style></defs><title>Asset 1</title><g id="Layer_2" data-name="Layer 2"><g id="Layer_1-2" data-name="Layer 1"><path class="cls-1" d="M125.43,0V237.44H104.18V0Zm76.79,1.86A41.06,41.06,0,0,1,216.57,8a32.56,32.56,0,0,1,9.51,11.56q3.54,6.9,3.54,17.33,0,10.06-3.54,17.15a34.21,34.21,0,0,1-9.51,12.11A41.71,41.71,0,0,1,202,73.25a66.82,66.82,0,0,1-17.89,2.42h-1.49l-9.51-17.15h9.51q26.09,0,26.09-21.62,0-11.37-6.52-15.66Q195.33,17,182.65,17H165.31V220.48h17.33q12.68,0,19.57-4.29,6.52-4.29,6.52-15.66,0-21.62-26.09-21.62h-9.51l9.51-17.15h1.49A66.82,66.82,0,0,1,202,164.2a41.71,41.71,0,0,1,14.54,7.08,34.22,34.22,0,0,1,9.51,12.11q3.54,7.08,3.54,17.15,0,10.44-3.54,17.33a32.56,32.56,0,0,1-9.51,11.56,41.06,41.06,0,0,1-14.35,6.15,88.35,88.35,0,0,1-18.08,1.86H144.07V0h40.07A88.35,88.35,0,0,1,202.22,1.86ZM47,17Q34.3,17,27.4,21.25q-6.52,4.29-6.52,15.66,0,21.62,26.09,21.62h9.51L47,75.67H45.47a66.82,66.82,0,0,1-17.89-2.42A41.71,41.71,0,0,1,13,66.16,34.21,34.21,0,0,1,3.54,54Q0,47,0,36.9,0,26.46,3.54,19.57A32.64,32.64,0,0,1,13,8,41.06,41.06,0,0,1,27.4,1.86,88.35,88.35,0,0,1,45.47,0H85.54V237.44H45.47a88.35,88.35,0,0,1-18.08-1.86A41.06,41.06,0,0,1,13,229.43a32.64,32.64,0,0,1-9.51-11.56Q0,211,0,200.54q0-10.06,3.54-17.15A34.22,34.22,0,0,1,13,171.28a41.71,41.71,0,0,1,14.54-7.08,66.82,66.82,0,0,1,17.89-2.42H47l9.51,17.15H47q-26.09,0-26.09,21.62,0,11.37,6.52,15.66,6.9,4.29,19.57,4.29H64.3V17Z"/><path class="cls-1" d="M489.8,130.84h18.64v89.09H552v15.65H489.8Zm110.33,61.88H619.7l-13.42-47.53h-.56l-25.53,90.39H561.56l33.92-104.74h21.8l34.11,104.74H631.82l-8-28.33H608.15ZM412.08,235.58V130.84h18.64v89.09h43.61v15.65ZM373.31,130.84H392V235.58H373.31ZM353.37,148q3,6,3,15.28,0,8.95-3,15.1A27.32,27.32,0,0,1,345,189a35.47,35.47,0,0,1-12.68,6.15,54.51,54.51,0,0,1-15.84,2h-.56l-8.2-14.91H315q23.11,0,23.11-19,0-9.88-5.77-13.79-5.78-3.73-17.33-3.73h-15.1v89.83H281.24V130.84h35.23a71.31,71.31,0,0,1,16,1.68A30.41,30.41,0,0,1,345,137.92,26.46,26.46,0,0,1,353.37,148Zm371.07-10.25a24.42,24.42,0,0,1,8,9.51q3,5.78,3,14.72,0,12.12-5.59,19.38A33.2,33.2,0,0,1,714.76,192l25,43.61H718.85L688.1,179.85h7.08q10.63,0,16.4-4.47,5.59-4.47,5.59-13.42t-5.59-12.67q-5.78-3.54-16.4-3.54H680.28v89.83H661.64V130.84H697a67.78,67.78,0,0,1,15.28,1.68A30.23,30.23,0,0,1,724.45,137.73Zm93,4.47-9.51,11.93a46.73,46.73,0,0,0-10.44-6.71,32.83,32.83,0,0,0-12.3-2.24q-7.64,0-11.93,3.17a10.82,10.82,0,0,0-4.47,9.13,9.59,9.59,0,0,0,1.3,5.22,17.51,17.51,0,0,0,3.73,3.73l5.41,3.17,28.89,13a30.44,30.44,0,0,1,6.71,6,27.54,27.54,0,0,1,4.48,7.64,34.79,34.79,0,0,1,1.49,10.25,26.32,26.32,0,0,1-2.61,11.93,25.14,25.14,0,0,1-7.46,9.88A29.44,29.44,0,0,1,799,235a52,52,0,0,1-15.84,2.42,56.15,56.15,0,0,1-20.5-3.91,50.71,50.71,0,0,1-17.33-11.37l11-12.68A45.6,45.6,0,0,0,769,218.06a34.4,34.4,0,0,0,14.53,3.35q8.77,0,13.61-3.73a12.49,12.49,0,0,0,3.36-15.28,11.05,11.05,0,0,0-3.36-3.91l-33.55-16.22a27.9,27.9,0,0,1-6.89-5.78,26.4,26.4,0,0,1-4.85-7.83A25.69,25.69,0,0,1,750,158.42a27,27,0,0,1,2.61-11.56,36.68,36.68,0,0,1,7.27-9.5A37.54,37.54,0,0,1,771,131.21,43.45,43.45,0,0,1,785.21,129a44.19,44.19,0,0,1,17.71,3.54A46.53,46.53,0,0,1,817.45,142.21Z"/></g></g></svg>